<mxfile host="app.diagrams.net" modified="2024-06-09T15:01:30.193Z" agent="Mozilla/5.0 (Windows NT 10.0; Win64; x64) AppleWebKit/537.36 (KHTML, like Gecko) Chrome/125.0.0.0 Safari/537.36" etag="balT_KSPAGpn3typ7ocX" version="24.5.2" type="github">
  <diagram name="第 1 页" id="BDbYVSDvAZEUx6pvYSm_">
    <mxGraphModel dx="1242" dy="523" grid="0" gridSize="10" guides="1" tooltips="1" connect="1" arrows="1" fold="1" page="0" pageScale="1" pageWidth="827" pageHeight="1169" math="0" shadow="0">
      <root>
        <mxCell id="0" />
        <mxCell id="1" parent="0" />
        <mxCell id="0O0re6em-2R7xqc1b5Sp-29" value="" style="rounded=1;whiteSpace=wrap;html=1;fontStyle=1;fillColor=#D79B00;strokeColor=#D79B00;shadow=1;arcSize=8;" parent="1" vertex="1">
          <mxGeometry x="-80" y="330" width="720" height="60" as="geometry" />
        </mxCell>
        <mxCell id="0O0re6em-2R7xqc1b5Sp-20" value="" style="rounded=1;whiteSpace=wrap;html=1;fillColor=#D6B656;strokeColor=#D6B656;shadow=1;align=center;verticalAlign=middle;fontFamily=Helvetica;fontSize=12;fontColor=default;fontStyle=1;" parent="1" vertex="1">
          <mxGeometry x="-80" y="190" width="720" height="120" as="geometry" />
        </mxCell>
        <mxCell id="0O0re6em-2R7xqc1b5Sp-28" style="edgeStyle=orthogonalEdgeStyle;rounded=0;orthogonalLoop=1;jettySize=auto;html=1;exitX=0.5;exitY=1;exitDx=0;exitDy=0;entryX=0.5;entryY=0;entryDx=0;entryDy=0;" parent="1" source="0O0re6em-2R7xqc1b5Sp-1" target="0O0re6em-2R7xqc1b5Sp-20" edge="1">
          <mxGeometry relative="1" as="geometry" />
        </mxCell>
        <mxCell id="0O0re6em-2R7xqc1b5Sp-1" value="&lt;font style=&quot;font-size: 20px;&quot;&gt;MindSync OS&lt;/font&gt;" style="rounded=1;whiteSpace=wrap;html=1;fontStyle=1;fillColor=#F8CECC;strokeColor=#F8CECC;shadow=1;" parent="1" vertex="1">
          <mxGeometry x="50" y="130" width="460" height="40" as="geometry" />
        </mxCell>
        <mxCell id="0O0re6em-2R7xqc1b5Sp-2" value="汇编函数" style="rounded=1;whiteSpace=wrap;html=1;fontStyle=1;fillColor=#FFF2CC;strokeColor=#FFF2CC;shadow=1;" parent="1" vertex="1">
          <mxGeometry x="-70" y="200" width="100" height="40" as="geometry" />
        </mxCell>
        <mxCell id="0O0re6em-2R7xqc1b5Sp-3" value="内存管理模块" style="rounded=1;whiteSpace=wrap;html=1;fontStyle=1;fillColor=#FFF2CC;strokeColor=#FFF2CC;shadow=1;" parent="1" vertex="1">
          <mxGeometry x="50" y="200" width="100" height="40" as="geometry" />
        </mxCell>
        <mxCell id="0O0re6em-2R7xqc1b5Sp-4" value="多图层管理" style="rounded=1;whiteSpace=wrap;html=1;fontStyle=1;fillColor=#ffe6cc;strokeColor=#FFE6CC;shadow=1;align=center;verticalAlign=middle;fontFamily=Helvetica;fontSize=12;fontColor=default;" parent="1" vertex="1">
          <mxGeometry x="90" y="340" width="80" height="40" as="geometry" />
        </mxCell>
        <mxCell id="0O0re6em-2R7xqc1b5Sp-6" value="图像" style="rounded=1;whiteSpace=wrap;html=1;fontStyle=1;fillColor=#ffe6cc;strokeColor=#FFE6CC;shadow=1;align=center;verticalAlign=middle;fontFamily=Helvetica;fontSize=12;fontColor=default;" parent="1" vertex="1">
          <mxGeometry y="340" width="80" height="40" as="geometry" />
        </mxCell>
        <mxCell id="0O0re6em-2R7xqc1b5Sp-7" value="GDT&amp;amp;IDT" style="rounded=1;whiteSpace=wrap;html=1;fontStyle=1;fillColor=#FFF2CC;strokeColor=#FFF2CC;shadow=1;" parent="1" vertex="1">
          <mxGeometry x="290" y="200" width="100" height="40" as="geometry" />
        </mxCell>
        <mxCell id="0O0re6em-2R7xqc1b5Sp-8" value="中断处理" style="rounded=1;whiteSpace=wrap;html=1;fontStyle=1;fillColor=#FFF2CC;strokeColor=#FFF2CC;shadow=1;" parent="1" vertex="1">
          <mxGeometry x="410" y="200" width="100" height="40" as="geometry" />
        </mxCell>
        <mxCell id="0O0re6em-2R7xqc1b5Sp-9" value="FIFO" style="rounded=1;whiteSpace=wrap;html=1;fontStyle=1;fillColor=#FFF2CC;strokeColor=#FFF2CC;shadow=1;" parent="1" vertex="1">
          <mxGeometry x="530" y="200" width="100" height="40" as="geometry" />
        </mxCell>
        <mxCell id="0O0re6em-2R7xqc1b5Sp-10" value="键盘" style="rounded=1;whiteSpace=wrap;html=1;fontStyle=1;fillColor=#ffe6cc;strokeColor=#FFE6CC;shadow=1;" parent="1" vertex="1">
          <mxGeometry x="340" y="340" width="80" height="40" as="geometry" />
        </mxCell>
        <mxCell id="0O0re6em-2R7xqc1b5Sp-11" value="鼠标" style="rounded=1;whiteSpace=wrap;html=1;fontStyle=1;fillColor=#FFE6CC;strokeColor=#FFE6CC;shadow=1;" parent="1" vertex="1">
          <mxGeometry x="440" y="340" width="80" height="40" as="geometry" />
        </mxCell>
        <mxCell id="0O0re6em-2R7xqc1b5Sp-12" value="计时器模块" style="rounded=1;whiteSpace=wrap;html=1;fontStyle=1;fillColor=#FFF2CC;strokeColor=#FFF2CC;shadow=1;" parent="1" vertex="1">
          <mxGeometry x="-70" y="260" width="100" height="40" as="geometry" />
        </mxCell>
        <mxCell id="0O0re6em-2R7xqc1b5Sp-13" value="多任务模块" style="rounded=1;whiteSpace=wrap;html=1;fontStyle=1;fillColor=#FFF2CC;strokeColor=#FFF2CC;shadow=1;" parent="1" vertex="1">
          <mxGeometry x="530" y="260" width="100" height="40" as="geometry" />
        </mxCell>
        <mxCell id="0O0re6em-2R7xqc1b5Sp-14" value="窗口" style="rounded=1;whiteSpace=wrap;html=1;fontStyle=1;fillColor=#ffe6cc;strokeColor=#FFE6CC;shadow=1;align=center;verticalAlign=middle;fontFamily=Helvetica;fontSize=12;fontColor=default;" parent="1" vertex="1">
          <mxGeometry x="180" y="340" width="80" height="40" as="geometry" />
        </mxCell>
        <mxCell id="0O0re6em-2R7xqc1b5Sp-15" value="文件模块" style="rounded=1;whiteSpace=wrap;html=1;fontStyle=1;fillColor=#FFF2CC;strokeColor=#FFF2CC;shadow=1;" parent="1" vertex="1">
          <mxGeometry x="170" y="200" width="100" height="40" as="geometry" />
        </mxCell>
        <mxCell id="0O0re6em-2R7xqc1b5Sp-16" value="控制台模块" style="rounded=1;whiteSpace=wrap;html=1;fontStyle=1;fillColor=#FFF2CC;strokeColor=#FFF2CC;shadow=1;" parent="1" vertex="1">
          <mxGeometry x="230" y="260" width="100" height="40" as="geometry" />
        </mxCell>
        <mxCell id="0O0re6em-2R7xqc1b5Sp-24" style="edgeStyle=orthogonalEdgeStyle;rounded=0;orthogonalLoop=1;jettySize=auto;html=1;exitX=0.5;exitY=1;exitDx=0;exitDy=0;" parent="1" source="0O0re6em-2R7xqc1b5Sp-17" target="0O0re6em-2R7xqc1b5Sp-10" edge="1">
          <mxGeometry relative="1" as="geometry" />
        </mxCell>
        <mxCell id="0O0re6em-2R7xqc1b5Sp-25" style="edgeStyle=orthogonalEdgeStyle;rounded=0;orthogonalLoop=1;jettySize=auto;html=1;exitX=0.5;exitY=1;exitDx=0;exitDy=0;" parent="1" source="0O0re6em-2R7xqc1b5Sp-17" target="0O0re6em-2R7xqc1b5Sp-11" edge="1">
          <mxGeometry relative="1" as="geometry" />
        </mxCell>
        <mxCell id="0O0re6em-2R7xqc1b5Sp-17" value="外设管理模块" style="rounded=1;whiteSpace=wrap;html=1;fontStyle=1;fillColor=#FFF2CC;strokeColor=#FFF2CC;shadow=1;" parent="1" vertex="1">
          <mxGeometry x="380" y="260" width="100" height="40" as="geometry" />
        </mxCell>
        <mxCell id="0O0re6em-2R7xqc1b5Sp-21" style="edgeStyle=orthogonalEdgeStyle;rounded=0;orthogonalLoop=1;jettySize=auto;html=1;exitX=0.5;exitY=1;exitDx=0;exitDy=0;entryX=0.5;entryY=0;entryDx=0;entryDy=0;" parent="1" source="0O0re6em-2R7xqc1b5Sp-18" target="0O0re6em-2R7xqc1b5Sp-4" edge="1">
          <mxGeometry relative="1" as="geometry" />
        </mxCell>
        <mxCell id="0O0re6em-2R7xqc1b5Sp-22" style="edgeStyle=orthogonalEdgeStyle;rounded=0;orthogonalLoop=1;jettySize=auto;html=1;exitX=0.5;exitY=1;exitDx=0;exitDy=0;" parent="1" source="0O0re6em-2R7xqc1b5Sp-18" target="0O0re6em-2R7xqc1b5Sp-6" edge="1">
          <mxGeometry relative="1" as="geometry" />
        </mxCell>
        <mxCell id="0O0re6em-2R7xqc1b5Sp-26" style="edgeStyle=orthogonalEdgeStyle;rounded=0;orthogonalLoop=1;jettySize=auto;html=1;exitX=0.5;exitY=1;exitDx=0;exitDy=0;" parent="1" source="0O0re6em-2R7xqc1b5Sp-18" target="0O0re6em-2R7xqc1b5Sp-14" edge="1">
          <mxGeometry relative="1" as="geometry" />
        </mxCell>
        <mxCell id="0O0re6em-2R7xqc1b5Sp-18" value="显示模块" style="rounded=1;whiteSpace=wrap;html=1;fontStyle=1;fillColor=#FFF2CC;strokeColor=#FFF2CC;shadow=1;" parent="1" vertex="1">
          <mxGeometry x="80" y="260" width="100" height="40" as="geometry" />
        </mxCell>
      </root>
    </mxGraphModel>
  </diagram>
</mxfile>
